<svg width="24" height="24" viewBox="0 0 24 24" fill="none" xmlns="http://www.w3.org/2000/svg">
<g id="Dashboard Circle" clip-path="url(#clip0_2_164)">
<path id="icon" fill-rule="evenodd" clip-rule="evenodd" d="M5.14286 13.7143C7.98317 13.7143 10.2857 16.0168 10.2857 18.8571C10.2857 21.6975 7.98317 24 5.14286 24C2.30254 24 -1.00647e-07 21.6975 -2.24801e-07 18.8571C-3.48955e-07 16.0168 2.30254 13.7143 5.14286 13.7143ZM5.14286 1.68255e-06C7.98317 1.55839e-06 10.2857 2.30246 10.2857 5.14286C10.2857 7.98317 7.98317 10.2857 5.14286 10.2857C2.30254 10.2857 -7.00118e-07 7.98317 -8.24272e-07 5.14286C-9.4843e-07 2.30246 2.30254 1.8067e-06 5.14286 1.68255e-06ZM24 18.8571C24 16.0168 21.6975 13.7143 18.8571 13.7143C16.0168 13.7143 13.7143 16.0168 13.7143 18.8571C13.7143 21.6975 16.0168 24 18.8571 24C21.6975 24 24 21.6975 24 18.8571ZM18.8571 1.08308e-06C21.6975 9.58919e-07 24 2.30246 24 5.14286C24 7.98317 21.6975 10.2857 18.8571 10.2857C16.0168 10.2857 13.7143 7.98317 13.7143 5.14286C13.7143 2.30246 16.0168 1.20723e-06 18.8571 1.08308e-06Z" fill="white"/>
</g>
<defs>
<clipPath id="clip0_2_164">
<rect width="24" height="24" fill="white" transform="translate(0 24) rotate(-90)"/>
</clipPath>
</defs>
</svg>
