<svg width="24" height="24" viewBox="0 0 24 24" fill="none" xmlns="http://www.w3.org/2000/svg">
<g id="Emergency Exit" clip-path="url(#clip0_2_160)">
<path id="icon" fill-rule="evenodd" clip-rule="evenodd" d="M8.08165 2.54568C8.08165 1.20203 9.17089 0.112793 10.5145 0.112793L21.5446 0.112793C22.8883 0.112793 23.9776 1.20203 23.9776 2.54568L23.9776 21.4545C23.9776 22.7981 22.8883 23.8874 21.5446 23.8874H13.141C13.2743 23.5214 13.3469 23.1264 13.3469 22.7143V19.5979C13.3469 19.4558 13.3411 19.3143 13.3295 19.1738C13.6282 19.2276 13.9331 19.2552 14.2409 19.2552H16.5918C18.4853 19.2552 20.0203 17.7201 20.0203 15.8265C20.0203 14.2668 18.9787 12.9503 17.5533 12.5347C18.5179 11.6336 19.1212 10.3503 19.1212 8.92605C19.1212 6.19961 16.9109 3.9894 14.1844 3.9894C11.9723 3.9894 10.1001 5.44435 9.47238 7.4495C9.03049 7.26199 8.56249 7.13638 8.08165 7.07818V2.54568ZM11.3906 8.92605C11.3906 7.38307 12.6415 6.13226 14.1844 6.13226C15.7274 6.13226 16.9782 7.38307 16.9782 8.92605C16.9782 10.469 15.7274 11.7198 14.1844 11.7198C12.6415 11.7198 11.3906 10.469 11.3906 8.92605ZM11.5314 11.7046L11.5356 11.7088L14.0907 14.2639C14.1309 14.3041 14.1854 14.3266 14.2422 14.3266L16.5931 14.3266C17.4216 14.3266 18.0931 14.9981 18.0931 15.8266C18.0931 16.655 17.4216 17.3266 16.5932 17.3266H14.2422C13.3897 17.3266 12.5722 16.988 11.9694 16.3852L10.4708 14.8866L9.25461 16.1028L10.4769 17.3251C11.0797 17.9278 11.4184 18.7454 11.4184 19.5979V22.2854C11.4184 23.1137 10.7468 23.7854 9.91835 23.7854C9.08992 23.7854 8.41835 23.1137 8.41835 22.2854V19.5979C8.41835 19.5411 8.39577 19.4866 8.35559 19.4463L7.11229 18.2031C6.55645 18.625 5.87463 18.8571 5.16887 18.8571H1.71429C0.885868 18.8571 0.214294 18.1855 0.214294 17.3571C0.214294 16.5287 0.885868 15.8571 1.71429 15.8571H5.16887C5.2257 15.8571 5.2802 15.8345 5.3204 15.7943L8.34945 12.7653L7.61643 12.0322C7.57624 11.9921 7.52173 11.9695 7.4649 11.9695L4.34824 11.9695C3.51983 11.9694 2.84826 11.2979 2.84828 10.4694C2.84828 9.64101 3.51987 8.96943 4.34829 8.96945L7.46493 8.96949C8.3174 8.9695 9.13496 9.30814 9.73773 9.91092L11.5272 11.7004L11.5314 11.7046Z" fill="white"/>
</g>
<defs>
<clipPath id="clip0_2_160">
<rect width="24" height="24" fill="white"/>
</clipPath>
</defs>
</svg>
